# xmcd
#
# Track frame offsets:
#	180
#	14135
#	29540
#	50369
#	63601
#	82517
#	101326
#	119531
#	137476
#	152823
#	168321
#	181753
#	198112
#	218073
#	232332
#	247962
#	268001
#	280430
#	306968
#
# Disc length: 4309 seconds
#
# Revision: 2
# Processed by: cddbd v1.5.2PL0 Copyright (c) Steve Scherf et al.
# Submitted via: ExactAudioCopy v0.95b4
#
DISCID=0a10d313
DTITLE=Various Artist - 100 Baladas 100 [Cd 5]
DYEAR=1996
DGENRE=Balada
TTITLE0=Matt Monro - Alguien Canto
TTITLE1=Los Angeles Negros - Murio La Flor
TTITLE2=Jose Luis Perales - Y Te Vas
TTITLE3=Los Blue Caps - Sensacional Eres Tu
TTITLE4=Raphael - Amor Mio
TTITLE5=Paloma San Basilio - Por Culpa De Una Noche Enamorada
TTITLE6=Adamo - Mi Rol
TTITLE7=Gian Franco Pagliaro - Si Me Olvidas, Te Olvido
TTITLE8=Los Angeles Negros - A Tu Recuerdo
TTITLE9=Dyango - Cuando Queras Donde Quieras
TTITLE10=Lorenzo Santamaría - Piensa En Mi
TTITLE11=Los Golpes - La Pobre Miia
TTITLE12=Myriam Hernandez - Ay Amor
TTITLE13=Alberto Cortez - En Un Rincon Del Alma
TTITLE14=Mijares - Para Amarnos Mas
TTITLE15=Pandora - Con Tu Amor
TTITLE16=Yaco Monti - Esta Dormida
TTITLE17=José Feliciano - Madrigal
TTITLE18=Luis Miguel - Palabra De Honor
EXTD=100 baladas 100 collection from EMI
EXTT0=
EXTT1=
EXTT2=
EXTT3=
EXTT4=
EXTT5=
EXTT6=
EXTT7=
EXTT8=
EXTT9=
EXTT10=
EXTT11=
EXTT12=
EXTT13=
EXTT14=
EXTT15=
EXTT16=
EXTT17=
EXTT18=
PLAYORDER=
